<mxfile host="app.diagrams.net" agent="Mozilla/5.0 (X11; Linux x86_64; rv:130.0) Gecko/20100101 Firefox/130.0" version="26.0.2">
  <diagram name="Page-1" id="VuJr6_s8pL9bNVg6vI4B">
    <mxGraphModel dx="1114" dy="605" grid="1" gridSize="10" guides="1" tooltips="1" connect="1" arrows="1" fold="1" page="1" pageScale="1" pageWidth="850" pageHeight="1100" math="0" shadow="0">
      <root>
        <mxCell id="0" />
        <mxCell id="1" parent="0" />
        <mxCell id="Gu3dQSypRd7iIzZCZK_O-2" value="" style="rounded=0;whiteSpace=wrap;html=1;fillColor=none;dashed=1;" parent="1" vertex="1">
          <mxGeometry x="67.2" y="290" width="590" height="250" as="geometry" />
        </mxCell>
        <mxCell id="TDvT9tzpBWyc78_vLcjQ-9" value="" style="rounded=0;whiteSpace=wrap;html=1;" vertex="1" parent="1">
          <mxGeometry x="390" y="415" width="10" height="60" as="geometry" />
        </mxCell>
        <mxCell id="Gu3dQSypRd7iIzZCZK_O-15" style="edgeStyle=orthogonalEdgeStyle;rounded=0;orthogonalLoop=1;jettySize=auto;html=1;entryX=0.5;entryY=1;entryDx=0;entryDy=0;startArrow=none;startFill=0;exitX=0.543;exitY=0.504;exitDx=0;exitDy=0;exitPerimeter=0;" parent="1" source="Gu3dQSypRd7iIzZCZK_O-3" target="Gu3dQSypRd7iIzZCZK_O-12" edge="1">
          <mxGeometry relative="1" as="geometry">
            <Array as="points">
              <mxPoint x="200" y="468" />
            </Array>
          </mxGeometry>
        </mxCell>
        <mxCell id="Gu3dQSypRd7iIzZCZK_O-3" value="" style="shape=mxgraph.pid.vessels.prop_agitator;html=1;pointerEvents=1;align=center;verticalLabelPosition=bottom;verticalAlign=top;dashed=0;rotation=-115;fillColor=#d5e8d4;strokeColor=#82b366;" parent="1" vertex="1">
          <mxGeometry x="192.2" y="425" width="20" height="88" as="geometry" />
        </mxCell>
        <mxCell id="Gu3dQSypRd7iIzZCZK_O-13" style="edgeStyle=orthogonalEdgeStyle;rounded=0;orthogonalLoop=1;jettySize=auto;html=1;entryX=0.25;entryY=1;entryDx=0;entryDy=0;endArrow=classic;endFill=1;startArrow=none;startFill=0;" parent="1" source="Gu3dQSypRd7iIzZCZK_O-6" target="Gu3dQSypRd7iIzZCZK_O-12" edge="1">
          <mxGeometry relative="1" as="geometry" />
        </mxCell>
        <mxCell id="Gu3dQSypRd7iIzZCZK_O-6" value="Temperature &amp;amp; &lt;br&gt;humidity sensor" style="sketch=0;outlineConnect=0;fontColor=#232F3E;gradientColor=none;fillColor=#7AA116;strokeColor=none;dashed=0;verticalLabelPosition=bottom;verticalAlign=top;align=center;html=1;fontSize=12;fontStyle=0;aspect=fixed;pointerEvents=1;shape=mxgraph.aws4.iot_thing_temperature_humidity_sensor;" parent="1" vertex="1">
          <mxGeometry x="87.2" y="295" width="60" height="60" as="geometry" />
        </mxCell>
        <mxCell id="Gu3dQSypRd7iIzZCZK_O-7" value="" style="shape=xor;whiteSpace=wrap;html=1;rotation=90;fontColor=default;labelBackgroundColor=none;fillColor=none;" parent="1" vertex="1">
          <mxGeometry x="137.2" y="435" width="44.98" height="134.13" as="geometry" />
        </mxCell>
        <mxCell id="Gu3dQSypRd7iIzZCZK_O-22" style="edgeStyle=orthogonalEdgeStyle;rounded=0;orthogonalLoop=1;jettySize=auto;html=1;startArrow=classicThin;startFill=1;endArrow=none;endFill=0;" parent="1" source="Gu3dQSypRd7iIzZCZK_O-9" target="Gu3dQSypRd7iIzZCZK_O-21" edge="1">
          <mxGeometry relative="1" as="geometry">
            <Array as="points">
              <mxPoint x="530" y="482" />
              <mxPoint x="530" y="278" />
              <mxPoint x="390" y="278" />
            </Array>
          </mxGeometry>
        </mxCell>
        <mxCell id="Gu3dQSypRd7iIzZCZK_O-9" value="" style="shape=mxgraph.pid.heat_exchangers.plate_and_frame_heat_exchanger;html=1;pointerEvents=1;align=center;verticalLabelPosition=bottom;verticalAlign=top;dashed=0;fillColor=#f8cecc;strokeColor=#b85450;" parent="1" vertex="1">
          <mxGeometry x="544.7" y="451" width="85" height="62" as="geometry" />
        </mxCell>
        <mxCell id="Gu3dQSypRd7iIzZCZK_O-23" value="" style="edgeStyle=orthogonalEdgeStyle;rounded=0;orthogonalLoop=1;jettySize=auto;html=1;" parent="1" source="Gu3dQSypRd7iIzZCZK_O-12" target="Gu3dQSypRd7iIzZCZK_O-21" edge="1">
          <mxGeometry relative="1" as="geometry" />
        </mxCell>
        <mxCell id="Gu3dQSypRd7iIzZCZK_O-24" style="edgeStyle=orthogonalEdgeStyle;rounded=0;orthogonalLoop=1;jettySize=auto;html=1;startArrow=classicThin;startFill=1;dashed=1;" parent="1" source="Gu3dQSypRd7iIzZCZK_O-12" edge="1">
          <mxGeometry relative="1" as="geometry">
            <mxPoint x="620" y="80" as="targetPoint" />
            <Array as="points">
              <mxPoint x="200" y="30" />
              <mxPoint x="620" y="30" />
            </Array>
          </mxGeometry>
        </mxCell>
        <mxCell id="Gu3dQSypRd7iIzZCZK_O-30" value="Wifi connection" style="edgeLabel;html=1;align=center;verticalAlign=middle;resizable=0;points=[];labelBackgroundColor=none;" parent="Gu3dQSypRd7iIzZCZK_O-24" vertex="1" connectable="0">
          <mxGeometry x="0.0714" y="-1" relative="1" as="geometry">
            <mxPoint x="-3" y="19" as="offset" />
          </mxGeometry>
        </mxCell>
        <mxCell id="Gu3dQSypRd7iIzZCZK_O-12" value="Microcontroller" style="rounded=0;whiteSpace=wrap;html=1;fillColor=none;" parent="1" vertex="1">
          <mxGeometry x="130" y="120" width="140" height="60" as="geometry" />
        </mxCell>
        <mxCell id="Gu3dQSypRd7iIzZCZK_O-18" value="&lt;div&gt;Temperature&amp;nbsp;&lt;/div&gt;&lt;div&gt;&amp;nbsp;&amp;nbsp;&amp;nbsp;&amp;nbsp;&amp;nbsp;&amp;nbsp;&amp;nbsp; sensor&lt;/div&gt;" style="text;whiteSpace=wrap;html=1;" parent="1" vertex="1">
          <mxGeometry x="227.2" y="415" width="120" height="50" as="geometry" />
        </mxCell>
        <mxCell id="Gu3dQSypRd7iIzZCZK_O-19" value="Heater element" style="text;whiteSpace=wrap;html=1;" parent="1" vertex="1">
          <mxGeometry x="547.2" y="513" width="110" height="40" as="geometry" />
        </mxCell>
        <mxCell id="Gu3dQSypRd7iIzZCZK_O-21" value="Dimmer board" style="rounded=0;whiteSpace=wrap;html=1;fillColor=none;" parent="1" vertex="1">
          <mxGeometry x="310" y="120" width="120" height="60" as="geometry" />
        </mxCell>
        <mxCell id="Gu3dQSypRd7iIzZCZK_O-25" value="" style="shape=image;html=1;verticalAlign=top;verticalLabelPosition=bottom;labelBackgroundColor=#ffffff;imageAspect=0;aspect=fixed;image=https://cdn1.iconfinder.com/data/icons/unicons-line-vol-6/24/telegram-128.png" parent="1" vertex="1">
          <mxGeometry x="780" y="185" width="68" height="68" as="geometry" />
        </mxCell>
        <mxCell id="Gu3dQSypRd7iIzZCZK_O-27" value="Notifications via Telegram" style="html=1;verticalLabelPosition=bottom;align=center;labelBackgroundColor=none;verticalAlign=top;strokeWidth=2;strokeColor=#0080F0;shadow=0;dashed=0;shape=mxgraph.ios7.icons.smartphone;fillColor=none;" parent="1" vertex="1">
          <mxGeometry x="760" y="235" width="40" height="80" as="geometry" />
        </mxCell>
        <mxCell id="Gu3dQSypRd7iIzZCZK_O-28" style="edgeStyle=orthogonalEdgeStyle;rounded=0;orthogonalLoop=1;jettySize=auto;html=1;entryX=0.025;entryY=0.513;entryDx=0;entryDy=0;entryPerimeter=0;" parent="1" target="Gu3dQSypRd7iIzZCZK_O-27" edge="1">
          <mxGeometry relative="1" as="geometry">
            <mxPoint x="660" y="120" as="sourcePoint" />
          </mxGeometry>
        </mxCell>
        <mxCell id="Gu3dQSypRd7iIzZCZK_O-29" value="Insulated wooden box" style="text;html=1;align=center;verticalAlign=middle;resizable=0;points=[];autosize=1;strokeColor=none;fillColor=none;" parent="1" vertex="1">
          <mxGeometry x="532.2" y="260" width="140" height="30" as="geometry" />
        </mxCell>
        <mxCell id="Gu3dQSypRd7iIzZCZK_O-31" value="Server" style="sketch=0;aspect=fixed;pointerEvents=1;shadow=0;dashed=0;html=1;strokeColor=none;labelPosition=center;verticalLabelPosition=bottom;verticalAlign=top;align=center;fillColor=#00188D;shape=mxgraph.mscae.enterprise.web_server" parent="1" vertex="1">
          <mxGeometry x="604" y="80" width="53.2" height="70" as="geometry" />
        </mxCell>
        <mxCell id="TDvT9tzpBWyc78_vLcjQ-1" value="Food container" style="text;html=1;align=center;verticalAlign=middle;resizable=0;points=[];autosize=1;strokeColor=none;fillColor=none;" vertex="1" parent="1">
          <mxGeometry x="109.69" y="492" width="100" height="30" as="geometry" />
        </mxCell>
        <mxCell id="TDvT9tzpBWyc78_vLcjQ-3" value="&lt;div&gt;Water tank&lt;/div&gt;" style="text;whiteSpace=wrap;html=1;" vertex="1" parent="1">
          <mxGeometry x="385.5" y="509" width="90" height="40" as="geometry" />
        </mxCell>
        <mxCell id="TDvT9tzpBWyc78_vLcjQ-8" value="" style="verticalLabelPosition=bottom;verticalAlign=top;html=1;shape=mxgraph.basic.drop;fillColor=#dae8fc;strokeColor=#6c8ebf;rotation=-55;" vertex="1" parent="1">
          <mxGeometry x="445" y="396" width="11" height="19" as="geometry" />
        </mxCell>
        <mxCell id="TDvT9tzpBWyc78_vLcjQ-10" value="" style="rounded=0;whiteSpace=wrap;html=1;" vertex="1" parent="1">
          <mxGeometry x="410" y="415" width="10" height="60" as="geometry" />
        </mxCell>
        <mxCell id="TDvT9tzpBWyc78_vLcjQ-11" value="" style="rounded=0;whiteSpace=wrap;html=1;" vertex="1" parent="1">
          <mxGeometry x="430" y="415" width="10" height="60" as="geometry" />
        </mxCell>
        <mxCell id="TDvT9tzpBWyc78_vLcjQ-2" value="" style="shape=cylinder3;whiteSpace=wrap;html=1;boundedLbl=1;backgroundOutline=1;size=13;" vertex="1" parent="1">
          <mxGeometry x="385" y="429" width="60" height="80" as="geometry" />
        </mxCell>
        <mxCell id="TDvT9tzpBWyc78_vLcjQ-12" value="Humidifiers" style="text;whiteSpace=wrap;html=1;" vertex="1" parent="1">
          <mxGeometry x="383" y="346.5" width="90" height="40" as="geometry" />
        </mxCell>
        <mxCell id="TDvT9tzpBWyc78_vLcjQ-13" value="" style="verticalLabelPosition=bottom;verticalAlign=top;html=1;shape=mxgraph.basic.drop;fillColor=#dae8fc;strokeColor=#6c8ebf;rotation=37;" vertex="1" parent="1">
          <mxGeometry x="372" y="405.5" width="11" height="19" as="geometry" />
        </mxCell>
        <mxCell id="TDvT9tzpBWyc78_vLcjQ-14" value="" style="verticalLabelPosition=bottom;verticalAlign=top;html=1;shape=mxgraph.basic.drop;fillColor=#dae8fc;strokeColor=#6c8ebf;rotation=10;" vertex="1" parent="1">
          <mxGeometry x="389" y="386.5" width="11" height="19" as="geometry" />
        </mxCell>
        <mxCell id="TDvT9tzpBWyc78_vLcjQ-15" value="" style="verticalLabelPosition=bottom;verticalAlign=top;html=1;shape=mxgraph.basic.drop;fillColor=#dae8fc;strokeColor=#6c8ebf;rotation=-30;" vertex="1" parent="1">
          <mxGeometry x="425" y="377" width="11" height="19" as="geometry" />
        </mxCell>
        <mxCell id="TDvT9tzpBWyc78_vLcjQ-16" value="" style="verticalLabelPosition=bottom;verticalAlign=top;html=1;shape=mxgraph.basic.drop;fillColor=#dae8fc;strokeColor=#6c8ebf;rotation=10;" vertex="1" parent="1">
          <mxGeometry x="410" y="390" width="11" height="19" as="geometry" />
        </mxCell>
        <mxCell id="TDvT9tzpBWyc78_vLcjQ-17" value="" style="verticalLabelPosition=bottom;verticalAlign=top;html=1;shape=mxgraph.basic.drop;fillColor=#dae8fc;strokeColor=#6c8ebf;rotation=10;" vertex="1" parent="1">
          <mxGeometry x="403" y="371" width="11" height="19" as="geometry" />
        </mxCell>
        <mxCell id="TDvT9tzpBWyc78_vLcjQ-18" style="edgeStyle=orthogonalEdgeStyle;rounded=0;orthogonalLoop=1;jettySize=auto;html=1;exitX=0.75;exitY=1;exitDx=0;exitDy=0;entryX=0;entryY=0;entryDx=0;entryDy=26.5;entryPerimeter=0;" edge="1" parent="1" source="Gu3dQSypRd7iIzZCZK_O-12" target="TDvT9tzpBWyc78_vLcjQ-2">
          <mxGeometry relative="1" as="geometry">
            <Array as="points">
              <mxPoint x="235" y="250" />
              <mxPoint x="330" y="250" />
              <mxPoint x="330" y="456" />
            </Array>
          </mxGeometry>
        </mxCell>
      </root>
    </mxGraphModel>
  </diagram>
</mxfile>
